<svg id="visual" viewBox="0 0 960 540" width="960" height="540" xmlns="http://www.w3.org/2000/svg" xmlns:xlink="http://www.w3.org/1999/xlink" version="1.1"><rect x="0" y="0" width="960" height="540" fill="#A2D5C6"></rect><path d="M0 323L137 357L274 335L411 367L549 347L686 390L823 342L960 331L960 541L823 541L686 541L549 541L411 541L274 541L137 541L0 541Z" fill="#4caf50"></path><path d="M0 415L137 371L274 431L411 392L549 398L686 397L823 362L960 431L960 541L823 541L686 541L549 541L411 541L274 541L137 541L0 541Z" fill="#3d9849"></path><path d="M0 460L137 419L274 416L411 403L549 460L686 438L823 447L960 418L960 541L823 541L686 541L549 541L411 541L274 541L137 541L0 541Z" fill="#318142"></path><path d="M0 450L137 483L274 460L411 472L549 448L686 442L823 480L960 457L960 541L823 541L686 541L549 541L411 541L274 541L137 541L0 541Z" fill="#266b3a"></path><path d="M0 485L137 492L274 499L411 508L549 499L686 484L823 496L960 495L960 541L823 541L686 541L549 541L411 541L274 541L137 541L0 541Z" fill="#1e5631"></path></svg>